<svg version="1.0" xmlns="http://www.w3.org/2000/svg" viewBox="0 0 512 512">
  <path d="M0 256v256h512V0H0v256zM83 67v16H51V51h32v16zm126 0v16h-32V51h32v16zm126 0v16h-32V51h32v16zm126 0v16h-32V51h32v16zM83 193v16H51v-32h32v16zm126 0v16h-32v-32h32v16zm126 0v16h-32v-32h32v16zm126 0v16h-32v-32h32v16zM83 319v16H51v-32h32v16zm126 0v16h-32v-32h32v16zm126 0v16h-32v-32h32v16zm126 0v16h-32v-32h32v16zM83 445v16H51v-32h32v16zm126 0v16h-32v-32h32v16zm126 0v16h-32v-32h32v16zm126 0v16h-32v-32h32v16z"/>
</svg>
